<?xml version="1.0" encoding="utf-8"?>
<!-- Generator: Adobe Illustrator 27.5.0, SVG Export Plug-In . SVG Version: 6.00 Build 0)  -->
<svg version="1.1" xmlns="http://www.w3.org/2000/svg" xmlns:xlink="http://www.w3.org/1999/xlink" x="0px" y="0px"
	 viewBox="0 0 600 600" style="enable-background:new 0 0 600 600;" xml:space="preserve">
<g id="background">
	<rect style="fill:#FFFFFF;" width="600" height="600"/>
</g>
<g id="objects">
	<g>
		<ellipse style="fill:#DDDDDD;" cx="299.487" cy="502.798" rx="232.571" ry="14.045"/>
		<g>
			<g>
				<path style="fill:#323A56;" d="M298.235,470.383v17.103c0,5.782-17.262,10.472-38.567,10.472
					c-21.294,0-38.557-4.69-38.557-10.472v-17.103H298.235z"/>
				<path style="fill:#272C44;" d="M298.233,470.383v17.103c0,5.782-17.262,10.472-38.567,10.472c-3.268,0-6.44-0.106-9.475-0.318
					c13.337-2.271,22.977-8.112,11.343-15.81l3.543-11.447H298.233z"/>
				<ellipse style="fill:#323A56;" cx="259.672" cy="470.383" rx="38.56" ry="10.472"/>
				<path style="fill:#272C44;" d="M298.233,470.379c0,5.793-17.262,10.472-38.556,10.472h-0.042
					c12.552-4.276,15.473-16.471,0.038-20.94C279.321,460.388,298.233,464.914,298.233,470.379z"/>
				<path style="fill:#54607F;" d="M250.801,468.512c0.373,1.846-0.887,3.625-2.752,3.887l-7.279,1.022
					c-1.789,0.244-3.434-1.014-3.678-2.802c-0.238-1.789,1.014-3.44,2.808-3.684l7.24-1.015
					C248.854,465.679,250.458,466.815,250.801,468.512L250.801,468.512z"/>
			</g>
			<path style="fill:#1D2033;" d="M301.723,470.267c-0.188-10.933-26.485-13.857-42.051-13.857
				c-15.622,0-42.061,2.942-42.061,13.973v17.104c0,11.029,26.436,13.972,42.056,13.972c15.625,0,42.067-2.942,42.067-13.972
				v-17.104C301.735,470.343,301.724,470.307,301.723,470.267z M259.672,463.41c20.728,0,33.553,4.452,35.006,6.973
				c-1.453,2.521-14.278,6.973-35.006,6.973s-33.554-4.452-35.007-6.973C226.118,467.862,238.945,463.41,259.672,463.41z
				 M259.667,494.458c-21.01,0-33.9-4.575-35.056-7.074v-8.688c8.927,4.305,24.473,5.66,35.061,5.66
				c10.588,0,26.136-1.356,35.063-5.661v8.689C293.579,489.883,280.684,494.458,259.667,494.458z"/>
		</g>
		<g>
			<g>
				<path style="fill:#323A56;" d="M66.966,440.939c0.383,5.934,1.786,12.484,4.869,19.334c3.076,6.842,7.832,13.984,14.945,21.097
					c22.117,22.117,57.978,22.117,80.095,0l95.257-95.257l-45.674-12.694l-86.495,86.495c-2.926,2.926-6.76,4.389-10.601,4.389
					c-3.841,0-7.675-1.463-10.601-4.389c-3.173-3.173-4.756-7.607-4.321-12.064l1.433-14.622c0.443-4.494-1.208-8.755-4.209-11.756
					c-1.921-1.921-4.404-3.324-7.24-3.939C79.795,414.381,65.976,426.01,66.966,440.939z"/>
				<path style="fill:#E8312E;" d="M244.937,344.939l-28.479,28.479l45.674,12.694l11.989-11.989
					c70.597-70.597,113.361-125.574,113.361-125.574l-16.295-16.295C371.187,232.254,292.457,297.419,244.937,344.939z"/>
				<path style="fill:#323A56;" d="M502.875,99.214l17.648,17.648L388.788,248.599c-0.346,0.346-0.908,0.346-1.254,0l-16.395-16.395
					c-0.346-0.346-0.346-0.908,0-1.254L502.875,99.214z"/>
				<path style="fill:#323A56;" d="M521.457,89.287l8.993,8.993c3.515,3.515,3.515,9.213,0,12.728l-5.769,5.769
					c-1.172,1.172-3.071,1.172-4.243,0L502.96,99.299c-1.172-1.172-1.172-3.071,0-4.243l5.769-5.769
					C512.244,85.772,517.943,85.772,521.457,89.287z"/>
				<path style="fill:#272C44;" d="M520.521,116.859L388.831,248.56c-0.371,0.371-0.966,0.371-1.337,0l-7.979-7.979l132.37-132.359
					L520.521,116.859z"/>
				<path style="fill:#272C44;" d="M262.138,386.107l-95.267,95.267c-22.111,22.111-57.973,22.111-80.094,0
					c-7.109-7.119-11.862-14.26-14.939-21.103c-3.087-6.843-4.488-13.4-4.87-19.331c-0.477-7.162,2.462-13.56,7.257-17.941
					c0.456,8.265,4.859,56.084,45.57,56.084c39.862,0,83.956-49.23,128.497-96.826L262.138,386.107z"/>
				<path style="fill:#BC1D1D;" d="M387.483,248.549c0,0-42.769,54.981-113.367,125.569l-11.979,11.989l-13.846-3.851
					c5.273-5.613,10.536-11.215,15.798-16.7c46.058-48.021,95.733-106.895,115.595-124.805L387.483,248.549z"/>
				<path style="fill:#54607F;" d="M83.721,436.642c0,3.516,2.85,6.366,6.366,6.366s6.366-2.85,6.366-6.366v-4.244
					c0-3.516-2.85-6.366-6.366-6.366s-6.366,2.85-6.366,6.366V436.642z"/>
				<path style="fill:#54607F;" d="M214.868,403.18l-36.934,35.334c-2.338,2.212-6.015,2.105-8.227-0.223
					c-2.212-2.338-2.115-6.025,0.223-8.237l36.944-35.324c2.328-2.212,6.015-2.115,8.227,0.223
					C217.313,397.291,217.206,400.967,214.868,403.18z"/>
				<path style="fill:#FF6666;" d="M289.608,329.471l-36.934,35.334c-2.338,2.212-6.015,2.105-8.227-0.223
					c-2.212-2.338-2.115-6.025,0.223-8.237l36.944-35.324c2.328-2.212,6.015-2.115,8.227,0.223
					C292.053,323.582,291.946,327.259,289.608,329.471z"/>
			</g>
			<path style="fill:#1D2033;" d="M532.925,95.805l-8.993-8.993c-4.872-4.873-12.803-4.875-17.677,0l-5.77,5.769
				c-1.229,1.228-1.904,2.86-1.904,4.597c0,0.427,0.042,0.848,0.122,1.258L368.662,228.477c-0.658,0.659-1.056,1.477-1.207,2.332
				c-11.136,9.272-81.509,68.165-124.993,111.65L127.489,457.434c-4.482,4.479-11.772,4.479-16.253,0
				c-2.441-2.441-3.648-5.812-3.311-9.247l1.433-14.618c0.897-9.151-5.204-17.515-14.193-19.453
				c-8.147-1.76-16.44,0.364-22.757,5.816c-6.214,5.364-9.469,13.107-8.931,21.242c1.024,15.518,8.032,29.874,20.829,42.671
				c11.724,11.724,27.123,17.586,42.523,17.586c15.399,0,30.799-5.862,42.522-17.586L276.6,376.597
				c63.355-63.355,104.831-114.788,112.397-124.32c0.854-0.164,1.639-0.576,2.265-1.203l130.04-130.04
				c0.41,0.08,0.831,0.122,1.258,0.122c1.737,0,3.369-0.677,4.596-1.904l5.77-5.769C537.799,108.609,537.799,100.679,532.925,95.805
				z M164.403,478.896c-20.72,20.718-54.43,20.716-75.147,0c-11.562-11.562-17.885-24.408-18.794-38.183
				c-0.392-5.924,1.985-11.567,6.521-15.483c3.57-3.082,8.001-4.715,12.578-4.715c1.369,0,2.751,0.146,4.127,0.442
				c5.512,1.189,9.254,6.317,8.703,11.928l-1.433,14.618c-0.543,5.527,1.399,10.951,5.328,14.88c7.208,7.21,18.941,7.21,26.151,0
				l85.046-85.047l37.935,10.543L164.403,478.896z M271.651,371.648l-10.547,10.547l-37.935-10.543l24.242-24.242
				c42.175-42.174,109.887-99.014,123.563-110.419l1.303,1.303l10.526,10.526C373.733,260.191,333.019,310.278,271.651,371.648z
				 M388.161,244.276l-6.35-6.349l-6.349-6.349l127.413-127.414l12.698,12.699L388.161,244.276z M527.976,108.533l-5.416,5.416
				l-16.771-16.771l5.416-5.415c2.144-2.144,5.633-2.145,7.778,0l8.993,8.993C530.12,102.899,530.12,106.389,527.976,108.533z"/>
		</g>
	</g>
</g>
</svg>
